# xmcd
#
# Track frame offsets:
#	150
#	16898
#	35715
#	60314
#	73878
#	90940
#	110690
#	129311
#	141837
#	159149
#	174837
#	192392
#	210004
#	224280
#
# Disc length: 3000 seconds
#
# Revision: 2
# Processed by: cddbd v1.5.1PL0 Copyright (c) Steve Scherf et al.
# Submitted via: audiograbber 1.83.01
#
DISCID=b50bb60e
DTITLE=Köster and Hocker - Final verseucht
DYEAR=1900
DGENRE=Kölsch Satire
TTITLE0=En d`r Klammerjaß
TTITLE1=Urlaub
TTITLE2=He am Rhing
TTITLE3=Flurjeburt
TTITLE4=Durch de Wand
TTITLE5=Flachmann
TTITLE6=Schmierpitzpitter
TTITLE7=Et Fischleed
TTITLE8=Blaue Augen
TTITLE9=Leech im Keller
TTITLE10=Hausfreund Hein and die hillije Jeiss
TTITLE11=Em Fejefeuer ungerm Fluß
TTITLE12=Us em Nix
TTITLE13=Urlaub (Daachs drop)
EXTD=
EXTT0=
EXTT1=
EXTT2=
EXTT3=
EXTT4=
EXTT5=
EXTT6=
EXTT7=
EXTT8=
EXTT9=
EXTT10=
EXTT11=
EXTT12=
EXTT13=
PLAYORDER=
